<mxfile host="Electron" agent="Mozilla/5.0 (Windows NT 10.0; Win64; x64) AppleWebKit/537.36 (KHTML, like Gecko) draw.io/24.7.5 Chrome/126.0.6478.183 Electron/31.3.0 Safari/537.36" version="24.7.5">
  <diagram id="v6J2Fcln8kv8FsL8eZeO" name="第 1 页">
    <mxGraphModel dx="1400" dy="956" grid="1" gridSize="10" guides="1" tooltips="1" connect="1" arrows="1" fold="1" page="1" pageScale="1" pageWidth="827" pageHeight="1169" math="0" shadow="0">
      <root>
        <mxCell id="0" />
        <mxCell id="1" parent="0" />
        <mxCell id="LhgVH8c-u6alh-GtfNO_-42" style="edgeStyle=orthogonalEdgeStyle;curved=1;orthogonalLoop=1;jettySize=auto;html=1;exitX=1;exitY=0.5;exitDx=0;exitDy=0;fontSize=16;fontColor=#CC0066;strokeColor=#666666;strokeWidth=2;" parent="1" source="LhgVH8c-u6alh-GtfNO_-6" target="LhgVH8c-u6alh-GtfNO_-7" edge="1">
          <mxGeometry relative="1" as="geometry" />
        </mxCell>
        <mxCell id="LhgVH8c-u6alh-GtfNO_-6" value="" style="rounded=1;whiteSpace=wrap;html=1;strokeWidth=2;fillColor=#CCE7E5;strokeColor=#00897B;arcSize=12;dashed=1;fontFamily=Times New Roman;fontStyle=1;fontSize=18;" parent="1" vertex="1">
          <mxGeometry x="414" y="470" width="170" height="300" as="geometry" />
        </mxCell>
        <mxCell id="EnegyhMakw-tt58jnJzl-24" value="&lt;font style=&quot;font-size: 20px&quot;&gt;rtksvr&lt;/font&gt;" style="text;html=1;strokeColor=none;fillColor=none;align=center;verticalAlign=middle;whiteSpace=wrap;rounded=0;dashed=1;fontFamily=Times New Roman;fontStyle=1" parent="1" vertex="1">
          <mxGeometry x="594" y="632.5" width="59.57" height="20" as="geometry" />
        </mxCell>
        <mxCell id="LhgVH8c-u6alh-GtfNO_-1" value="&lt;font style=&quot;font-size: 18px&quot; color=&quot;#141414&quot;&gt;rtksvrinit&lt;/font&gt;" style="rounded=1;whiteSpace=wrap;html=1;strokeWidth=2;gradientDirection=east;fillColor=#EEEEEE;strokeColor=none;fontFamily=Times New Roman;fontStyle=1;fontSize=18;" parent="1" vertex="1">
          <mxGeometry x="439" y="542.5" width="120" height="60" as="geometry" />
        </mxCell>
        <mxCell id="LhgVH8c-u6alh-GtfNO_-5" value="&lt;span style=&quot;color: rgb(20 , 20 , 20)&quot;&gt;resetsysopts&lt;/span&gt;" style="rounded=1;whiteSpace=wrap;html=1;strokeWidth=2;gradientDirection=east;fillColor=#EEEEEE;strokeColor=none;fontFamily=Times New Roman;fontStyle=1;fontSize=18;" parent="1" vertex="1">
          <mxGeometry x="439.01" y="682.5" width="120" height="60" as="geometry" />
        </mxCell>
        <mxCell id="LhgVH8c-u6alh-GtfNO_-7" value="" style="rounded=1;whiteSpace=wrap;html=1;strokeWidth=2;fillColor=#CCE7E5;strokeColor=#00897B;arcSize=12;dashed=1;fontFamily=Times New Roman;fontStyle=1;fontSize=18;" parent="1" vertex="1">
          <mxGeometry x="664.4300000000001" y="470" width="349.57" height="300" as="geometry" />
        </mxCell>
        <mxCell id="LhgVH8c-u6alh-GtfNO_-10" value="&lt;font color=&quot;#141414&quot;&gt;writesol&lt;/font&gt;" style="rounded=1;whiteSpace=wrap;html=1;strokeWidth=2;gradientDirection=east;fillColor=#EEEEEE;strokeColor=none;fontFamily=Times New Roman;fontStyle=1;fontSize=18;" parent="1" vertex="1">
          <mxGeometry x="864" y="682.5" width="120" height="60" as="geometry" />
        </mxCell>
        <mxCell id="LhgVH8c-u6alh-GtfNO_-36" style="edgeStyle=orthogonalEdgeStyle;curved=1;orthogonalLoop=1;jettySize=auto;html=1;exitX=0.5;exitY=1;exitDx=0;exitDy=0;entryX=0.5;entryY=0;entryDx=0;entryDy=0;fontSize=22;strokeColor=#666666;strokeWidth=2;" parent="1" source="LhgVH8c-u6alh-GtfNO_-16" target="LhgVH8c-u6alh-GtfNO_-20" edge="1">
          <mxGeometry relative="1" as="geometry" />
        </mxCell>
        <mxCell id="LhgVH8c-u6alh-GtfNO_-16" value="&lt;font style=&quot;font-size: 18px&quot; color=&quot;#141414&quot;&gt;decoderaw&lt;/font&gt;" style="rounded=1;whiteSpace=wrap;html=1;strokeWidth=2;gradientDirection=east;fillColor=#EEEEEE;strokeColor=none;fontFamily=Times New Roman;fontStyle=1;fontSize=18;" parent="1" vertex="1">
          <mxGeometry x="689.68" y="542.5" width="120" height="60" as="geometry" />
        </mxCell>
        <mxCell id="LhgVH8c-u6alh-GtfNO_-37" style="edgeStyle=orthogonalEdgeStyle;curved=1;orthogonalLoop=1;jettySize=auto;html=1;exitX=1;exitY=0.5;exitDx=0;exitDy=0;fontSize=22;strokeColor=#666666;strokeWidth=2;" parent="1" source="LhgVH8c-u6alh-GtfNO_-20" target="LhgVH8c-u6alh-GtfNO_-10" edge="1">
          <mxGeometry relative="1" as="geometry" />
        </mxCell>
        <mxCell id="LhgVH8c-u6alh-GtfNO_-20" value="&lt;font color=&quot;#ffffff&quot;&gt;rtkpos&lt;br&gt;&lt;font style=&quot;font-size: 16px&quot;&gt;（定位算法）&lt;/font&gt;&lt;br&gt;&lt;/font&gt;" style="rounded=1;whiteSpace=wrap;html=1;strokeWidth=2;gradientDirection=east;fillColor=#00897B;strokeColor=none;fontColor=#333333;fontFamily=Times New Roman;fontStyle=1;fontSize=18;" parent="1" vertex="1">
          <mxGeometry x="689.43" y="682.5" width="120" height="60" as="geometry" />
        </mxCell>
        <mxCell id="LhgVH8c-u6alh-GtfNO_-22" value="&lt;font style=&quot;font-size: 20px&quot;&gt;options&lt;/font&gt;" style="text;html=1;strokeColor=none;fillColor=none;align=center;verticalAlign=middle;whiteSpace=wrap;rounded=0;dashed=1;fontFamily=Times New Roman;fontStyle=1" parent="1" vertex="1">
          <mxGeometry x="584.86" y="582.5" width="79.57" height="20" as="geometry" />
        </mxCell>
        <mxCell id="LhgVH8c-u6alh-GtfNO_-30" value="&lt;font style=&quot;font-size: 16px&quot; color=&quot;#cc0066&quot;&gt;obs、nav、rtk&lt;/font&gt;" style="text;html=1;strokeColor=none;fillColor=none;align=center;verticalAlign=middle;whiteSpace=wrap;rounded=0;dashed=1;fontFamily=Times New Roman;fontStyle=1;fontColor=#660033;" parent="1" vertex="1">
          <mxGeometry x="759.2099999999999" y="632.5" width="110" height="20" as="geometry" />
        </mxCell>
        <mxCell id="LhgVH8c-u6alh-GtfNO_-32" value="&lt;span style=&quot;font-size: 22px&quot;&gt;main&lt;/span&gt;" style="text;html=1;strokeColor=none;fillColor=none;align=center;verticalAlign=middle;whiteSpace=wrap;rounded=0;dashed=1;fontFamily=Times New Roman;fontStyle=1;fontSize=22;" parent="1" vertex="1">
          <mxGeometry x="469" y="500" width="60" height="20" as="geometry" />
        </mxCell>
        <mxCell id="LhgVH8c-u6alh-GtfNO_-33" value="&lt;span style=&quot;font-size: 22px&quot;&gt;rtksvrthread&lt;/span&gt;" style="text;html=1;strokeColor=none;fillColor=none;align=center;verticalAlign=middle;whiteSpace=wrap;rounded=0;dashed=1;fontFamily=Times New Roman;fontStyle=1;fontSize=22;" parent="1" vertex="1">
          <mxGeometry x="809.21" y="500" width="60" height="20" as="geometry" />
        </mxCell>
        <mxCell id="LhgVH8c-u6alh-GtfNO_-40" value="&lt;font color=&quot;#cc0066&quot;&gt;&lt;span style=&quot;font-size: 16px&quot;&gt;hex&lt;/span&gt;&lt;/font&gt;" style="text;html=1;strokeColor=none;fillColor=none;align=center;verticalAlign=middle;whiteSpace=wrap;rounded=0;dashed=1;fontFamily=Times New Roman;fontStyle=1;fontColor=#660033;" parent="1" vertex="1">
          <mxGeometry x="1022.5700000000002" y="542.5" width="30" height="20" as="geometry" />
        </mxCell>
        <mxCell id="LhgVH8c-u6alh-GtfNO_-41" value="&lt;font color=&quot;#cc0066&quot;&gt;&lt;span style=&quot;font-size: 16px&quot;&gt;result&lt;/span&gt;&lt;/font&gt;" style="text;html=1;strokeColor=none;fillColor=none;align=center;verticalAlign=middle;whiteSpace=wrap;rounded=0;dashed=1;fontFamily=Times New Roman;fontStyle=1;fontColor=#660033;" parent="1" vertex="1">
          <mxGeometry x="821.2100000000002" y="682.5" width="30" height="20" as="geometry" />
        </mxCell>
        <mxCell id="LhgVH8c-u6alh-GtfNO_-43" value="&lt;font style=&quot;font-size: 16px&quot;&gt;初始化&lt;/font&gt;" style="text;html=1;strokeColor=none;fillColor=none;align=center;verticalAlign=middle;whiteSpace=wrap;rounded=0;dashed=1;fontFamily=Times New Roman;fontStyle=1" parent="1" vertex="1">
          <mxGeometry x="459.21000000000004" y="632.5" width="79.57" height="20" as="geometry" />
        </mxCell>
        <mxCell id="LhgVH8c-u6alh-GtfNO_-44" value="&lt;font style=&quot;font-size: 16px&quot;&gt;流处理&lt;/font&gt;" style="text;html=1;strokeColor=none;fillColor=none;align=center;verticalAlign=middle;whiteSpace=wrap;rounded=0;dashed=1;fontFamily=Times New Roman;fontStyle=1" parent="1" vertex="1">
          <mxGeometry x="884.21" y="602.5" width="79.57" height="20" as="geometry" />
        </mxCell>
        <mxCell id="dkIyfJLfWSKq2emu3JXp-4" value="" style="rounded=1;whiteSpace=wrap;html=1;strokeWidth=2;fillColor=#CCE7E5;strokeColor=#00897B;arcSize=12;dashed=1;fontFamily=Times New Roman;fontStyle=1;fontSize=18;" parent="1" vertex="1">
          <mxGeometry x="1061.21" y="470" width="349.57" height="170" as="geometry" />
        </mxCell>
        <mxCell id="dkIyfJLfWSKq2emu3JXp-5" value="serialthread" style="text;html=1;strokeColor=none;fillColor=none;align=center;verticalAlign=middle;whiteSpace=wrap;rounded=0;dashed=1;fontFamily=Times New Roman;fontStyle=1;fontSize=22;" parent="1" vertex="1">
          <mxGeometry x="1205.99" y="500" width="60" height="20" as="geometry" />
        </mxCell>
        <mxCell id="dkIyfJLfWSKq2emu3JXp-7" style="edgeStyle=orthogonalEdgeStyle;rounded=0;orthogonalLoop=1;jettySize=auto;html=1;exitX=0;exitY=0.5;exitDx=0;exitDy=0;strokeWidth=2;strokeColor=#666666;" parent="1" source="dkIyfJLfWSKq2emu3JXp-6" target="LhgVH8c-u6alh-GtfNO_-16" edge="1">
          <mxGeometry relative="1" as="geometry" />
        </mxCell>
        <mxCell id="dkIyfJLfWSKq2emu3JXp-6" value="&lt;font style=&quot;font-size: 18px&quot; color=&quot;#141414&quot;&gt;strread&lt;/font&gt;" style="rounded=1;whiteSpace=wrap;html=1;strokeWidth=2;gradientDirection=east;fillColor=#EEEEEE;strokeColor=none;fontFamily=Times New Roman;fontStyle=1;fontSize=18;" parent="1" vertex="1">
          <mxGeometry x="1175.99" y="542.5" width="120" height="60" as="geometry" />
        </mxCell>
      </root>
    </mxGraphModel>
  </diagram>
</mxfile>
